<?xml version="1.0" encoding="UTF-8" standalone="no"?>
<svg
   xmlns:dc="http://purl.org/dc/elements/1.1/"
   xmlns:cc="http://creativecommons.org/ns#"
   xmlns:rdf="http://www.w3.org/1999/02/22-rdf-syntax-ns#"
   xmlns:svg="http://www.w3.org/2000/svg"
   xmlns="http://www.w3.org/2000/svg"
   xmlns:sodipodi="http://sodipodi.sourceforge.net/DTD/sodipodi-0.dtd"
   xmlns:inkscape="http://www.inkscape.org/namespaces/inkscape"
   width="24px"
   height="24px"
   viewBox="0 0 128 128"
   id="svg2"
   version="1.1"
   inkscape:version="0.91 r13725"
   sodipodi:docname="clock.svg">
  <metadata
     id="metadata9">
    <rdf:RDF>
      <cc:Work
         rdf:about="">
        <dc:format>image/svg+xml</dc:format>
        <dc:type
           rdf:resource="http://purl.org/dc/dcmitype/StillImage" />
      </cc:Work>
    </rdf:RDF>
  </metadata>
  <defs
     id="defs7" />
  <sodipodi:namedview
     pagecolor="#ffffff"
     bordercolor="#666666"
     borderopacity="1"
     objecttolerance="10"
     gridtolerance="10"
     guidetolerance="10"
     inkscape:pageopacity="0"
     inkscape:pageshadow="2"
     inkscape:window-width="640"
     inkscape:window-height="480"
     id="namedview5"
     showgrid="false"
     inkscape:zoom="9.8333333"
     inkscape:cx="12"
     inkscape:cy="12"
     inkscape:window-x="0"
     inkscape:window-y="24"
     inkscape:window-maximized="0"
     inkscape:current-layer="svg2" />
  <path
     id="Sélection"
     fill="black"
     stroke="none"
     stroke-width="1"
     d="M 110.91,19.01            C 139.27,48.85 132.20,101.62 95.00,120.74              80.97,127.96 74.29,128.18 59.00,128.00              32.72,127.69 9.58,107.57 2.21,83.00              -0.32,74.56 -0.01,69.54 0.00,61.00              0.05,29.93 23.19,5.95 53.00,0.44              74.16,-2.27 95.87,3.19 110.91,19.01 Z            M 9.09,44.00            C -3.78,79.89 21.76,121.54 61.00,122.00              70.89,122.11 78.85,121.51 88.00,117.22              94.57,114.14 100.83,110.20 105.91,104.96              127.81,82.40 127.63,44.09 104.96,22.09              91.43,8.95 74.37,4.55 56.00,6.29              34.05,9.92 16.76,22.61 9.09,44.00 Z            M 55.73,65.00            C 55.73,65.00 56.73,61.04 56.73,61.04              57.90,58.10 59.92,56.94 60.85,53.91              60.85,53.91 60.85,19.00 60.85,19.00              61.04,16.61 62.43,9.30 65.98,14.36              67.21,16.10 67.00,19.89 67.00,22.00              67.00,22.00 67.00,50.00 67.00,50.00              67.18,59.29 74.78,60.78 70.82,67.89              67.66,73.59 64.18,69.49 57.00,76.06              51.43,81.15 48.98,86.36 41.00,87.00              41.90,75.91 52.88,74.12 55.73,65.00 Z" />
</svg>
