<svg xmlns="http://www.w3.org/2000/svg" width="24" height="24" viewBox="0 0 128 128">
  <path d="M20 11l31 31c2.39 2.39 9.9 10.96 13 10.96 3 0 9.73-7.69 12-9.96l31-31c2.98-2.98 10.51-12.41 15-10.83 2.86 1 5.92 4.7 4.83 7.83-.92 2.66-9.39 10.56-11.83 13L88 49c-2.6 2.6-12.96 11.82-12.96 15 0 3 7.69 9.73 9.96 12l31 31c2.98 2.98 12.41 10.51 10.83 15-1 2.86-4.7 5.92-7.83 4.83-2.66-.92-10.56-9.39-13-11.83L79 88c-2.6-2.6-11.82-12.96-15-12.96-3 0-9.73 7.69-12 9.96l-31 31c-2.98 2.98-10.51 12.41-15 10.83-2.86-1-5.92-4.7-4.83-7.83.92-2.66 9.39-10.56 11.83-13l27-27c2.6-2.6 12.96-11.82 12.96-15 0-3-7.69-9.73-9.96-12L12 21C5.93 14.93-5.24 8.23 6 1.17 11.86.67 16.16 7.16 20 11z"/>
</svg>
