<?xml version="1.0" encoding="UTF-8"?>
<svg width="24px" height="24px" viewBox="0 0 24 24" version="1.1" xmlns="http://www.w3.org/2000/svg" xmlns:xlink="http://www.w3.org/1999/xlink" xmlns:sketch="http://www.bohemiancoding.com/sketch/ns">
    <!-- Generator: Sketch 3.3.2 (12043) - http://www.bohemiancoding.com/sketch -->
    <title>Artboard 1</title>
    <desc>Created with Sketch.</desc>
    <defs></defs>
    <g id="Page-1" stroke="none" stroke-width="1" fill="none" fill-rule="evenodd" sketch:type="MSPage">
        <g id="Artboard-1" sketch:type="MSArtboardGroup" fill="#000000">
            <path d="M21,9.26756439 L21,3.99339768 C21,3.44494629 20.5522847,3 20,3 C19.4438648,3 19,3.44475929 19,3.99339768 L19,9.26756439 C18.4021986,9.61337381 18,10.2597176 18,11 C18,11.7402824 18.4021986,12.3866262 19,12.7324356 L19,20.0066023 C19,20.5550537 19.4477153,21 20,21 C20.5561352,21 21,20.5552407 21,20.0066023 L21,12.7324356 C21.5978014,12.3866262 22,11.7402824 22,11 C22,10.2597176 21.5978014,9.61337381 21,9.26756439 L21,9.26756439 Z M13,14.2675644 L13,3.99339768 C13,3.44494629 12.5522847,3 12,3 C11.4438648,3 11,3.44475929 11,3.99339768 L11,14.2675644 C10.4021986,14.6133738 10,15.2597176 10,16 C10,16.7402824 10.4021986,17.3866262 11,17.7324356 L11,20.0066023 C11,20.5550537 11.4477153,21 12,21 C12.5561352,21 13,20.5552407 13,20.0066023 L13,17.7324356 C13.5978014,17.3866262 14,16.7402824 14,16 C14,15.2597176 13.5978014,14.6133738 13,14.2675644 L13,14.2675644 L13,14.2675644 Z M5,6.26756439 L5,3.99339768 C5,3.44494629 4.55228475,3 4,3 C3.44386482,3 3,3.44475929 3,3.99339768 L3,6.26756439 C2.40219863,6.61337381 2,7.25971764 2,8 C2,8.74028236 2.40219863,9.38662619 3,9.73243561 L3,20.0066023 C3,20.5550537 3.44771525,21 4,21 C4.55613518,21 5,20.5552407 5,20.0066023 L5,9.73243561 C5.59780137,9.38662619 6,8.74028236 6,8 C6,7.25971764 5.59780137,6.61337381 5,6.26756439 L5,6.26756439 Z M20,12 C20.5522847,12 21,11.5522847 21,11 C21,10.4477153 20.5522847,10 20,10 C19.4477153,10 19,10.4477153 19,11 C19,11.5522847 19.4477153,12 20,12 Z M4,9 C4.55228475,9 5,8.55228475 5,8 C5,7.44771525 4.55228475,7 4,7 C3.44771525,7 3,7.44771525 3,8 C3,8.55228475 3.44771525,9 4,9 Z M12,17 C12.5522847,17 13,16.5522847 13,16 C13,15.4477153 12.5522847,15 12,15 C11.4477153,15 11,15.4477153 11,16 C11,16.5522847 11.4477153,17 12,17 Z" id="Rectangle-1" sketch:type="MSShapeGroup"></path>
        </g>
    </g>
</svg>