<svg id="svg" version="1.1" width="500" height="500" xmlns="http://www.w3.org/2000/svg" xmlns:xlink="http://www.w3.org/1999/xlink" style="display: block;"><g id="svgg"><path id="path0" d="M0.000 200.000 L 0.000 400.000 200.000 400.000 L 400.000 400.000 400.000 200.000 L 400.000 0.000 200.000 0.000 L 0.000 0.000 0.000 200.000 M235.600 82.000 L 235.600 86.000 200.000 86.000 L 164.400 86.000 164.147 82.916 C 163.676 77.182,161.007 77.561,200.178 77.792 L 235.600 78.000 235.600 82.000 M236.000 241.200 L 236.000 388.000 200.000 388.000 L 164.000 388.000 164.000 241.200 L 164.000 94.400 200.000 94.400 L 236.000 94.400 236.000 241.200 M123.600 170.000 L 123.600 174.000 88.000 174.000 L 52.400 174.000 52.147 170.916 C 51.676 165.182,49.007 165.561,88.178 165.792 L 123.600 166.000 123.600 170.000 M124.000 285.200 L 124.000 388.000 88.000 388.000 L 52.000 388.000 52.000 285.200 L 52.000 182.400 88.000 182.400 L 124.000 182.400 124.000 285.200 M348.000 260.000 L 348.000 264.000 312.000 264.000 L 276.000 264.000 276.000 260.000 L 276.000 256.000 312.000 256.000 L 348.000 256.000 348.000 260.000 M348.000 330.000 L 348.000 388.000 312.000 388.000 L 276.000 388.000 276.000 330.533 C 276.000 298.927,276.240 272.827,276.533 272.533 C 276.827 272.240,293.027 272.000,312.533 272.000 L 348.000 272.000 348.000 330.000 " stroke="none" fill="#464646" fill-rule="evenodd"></path><path id="path1" d="M164.000 82.000 L 164.000 85.600 200.000 85.600 L 236.000 85.600 236.000 82.000 L 236.000 78.400 200.000 78.400 L 164.000 78.400 164.000 82.000 M52.000 170.000 L 52.000 173.600 88.000 173.600 L 124.000 173.600 124.000 170.000 L 124.000 166.400 88.000 166.400 L 52.000 166.400 52.000 170.000 M276.322 257.116 C 276.083 257.738,276.003 259.452,276.144 260.924 L 276.400 263.600 312.000 263.600 L 347.600 263.600 347.600 260.000 L 347.600 256.400 312.178 256.192 C 282.236 256.016,276.689 256.158,276.322 257.116 " stroke="none" fill="#ffffff" fill-rule="evenodd"></path><path id="path2" d="M182.200 78.199 C 191.990 78.326,208.010 78.326,217.800 78.199 C 227.590 78.072,219.580 77.968,200.000 77.968 C 180.420 77.968,172.410 78.072,182.200 78.199 M182.200 86.199 C 191.990 86.326,208.010 86.326,217.800 86.199 C 227.590 86.072,219.580 85.968,200.000 85.968 C 180.420 85.968,172.410 86.072,182.200 86.199 M164.000 241.200 L 164.000 388.000 200.000 388.000 L 236.000 388.000 236.000 241.200 L 236.000 94.400 200.000 94.400 L 164.000 94.400 164.000 241.200 M70.200 166.199 C 79.990 166.326,96.010 166.326,105.800 166.199 C 115.590 166.072,107.580 165.968,88.000 165.968 C 68.420 165.968,60.410 166.072,70.200 166.199 M70.200 174.199 C 79.990 174.326,96.010 174.326,105.800 174.199 C 115.590 174.072,107.580 173.968,88.000 173.968 C 68.420 173.968,60.410 174.072,70.200 174.199 M52.000 285.200 L 52.000 388.000 88.000 388.000 L 124.000 388.000 124.000 285.200 L 124.000 182.400 88.000 182.400 L 52.000 182.400 52.000 285.200 M276.533 272.533 C 276.240 272.827,276.000 298.927,276.000 330.533 L 276.000 388.000 312.000 388.000 L 348.000 388.000 348.000 330.000 L 348.000 272.000 312.533 272.000 C 293.027 272.000,276.827 272.240,276.533 272.533 " stroke="none" fill="#2a8fdc" fill-rule="evenodd"></path></g></svg>