<svg height="24" viewBox="0 0 24 24" width="24" xmlns="http://www.w3.org/2000/svg">
  <title/>
  <g fill="none" fill-rule="evenodd">
    <path d="M1.577 6C1.258 6 1 6.222 1 6.5c0 .276.262.5.577.5h20.846c.319 0 .577-.222.577-.5 0-.276-.262-.5-.577-.5H1.577zm0 5c-.319 0-.577.222-.577.5 0 .276.262.5.577.5h20.846c.319 0 .577-.222.577-.5 0-.276-.262-.5-.577-.5H1.577zm0 5c-.319 0-.577.222-.577.5 0 .276.262.5.577.5h20.846c.319 0 .577-.222.577-.5 0-.276-.262-.5-.577-.5H1.577z" fill="#fff"/>
  </g>
</svg>
